<svg width="269" height="269" viewBox="0 0 269 269" fill="none" xmlns="http://www.w3.org/2000/svg">
  <circle cx="134.5" cy="134.5" r="118" fill="#071816"/>
  <circle cx="134.5" cy="134.5" r="112" fill="#102A27" stroke="#00CEC8" stroke-width="5"/>
  <path d="M134.5 34v26" stroke="#00CEC8" stroke-width="9" stroke-linecap="round"/>
  <circle cx="134.5" cy="27" r="13" fill="#34D399"/>
  <rect x="63" y="74" width="143" height="114" rx="42" fill="#F0FFFC" stroke="#00CEC8" stroke-width="7"/>
  <rect x="86" y="111" width="30" height="25" rx="12.5" fill="#06211F"/>
  <path d="M153 122c8-8 21-8 29 0" stroke="#06211F" stroke-width="8" stroke-linecap="round"/>
  <path d="M102 153c14 13 50 13 64 0" stroke="#06211F" stroke-width="8" stroke-linecap="round"/>
  <path d="M194 82l12 12 25-28" stroke="#34D399" stroke-width="10" stroke-linecap="round" stroke-linejoin="round"/>
  <rect x="92" y="195" width="85" height="27" rx="13.5" fill="#00CEC8"/>
  <path d="M43 131c-18 1-25 19-13 31" stroke="#00CEC8" stroke-width="10" stroke-linecap="round"/>
  <path d="M226 122c18 12 22 32 7 45" stroke="#00CEC8" stroke-width="10" stroke-linecap="round"/>
</svg>
