<svg width="269" height="269" viewBox="0 0 269 269" fill="none" xmlns="http://www.w3.org/2000/svg">
  <circle cx="134.5" cy="134.5" r="118" fill="#180D12"/>
  <circle cx="134.5" cy="134.5" r="112" fill="#2A1620" stroke="#00CEC8" stroke-width="5"/>
  <path d="M134.5 34v26" stroke="#00CEC8" stroke-width="9" stroke-linecap="round"/>
  <circle cx="134.5" cy="27" r="13" fill="#FCA5A5"/>
  <rect x="63" y="74" width="143" height="114" rx="42" fill="#FFF7F7" stroke="#00CEC8" stroke-width="7"/>
  <path d="M86 117c11 8 24 8 35 0" stroke="#06211F" stroke-width="8" stroke-linecap="round"/>
  <path d="M149 117c11 8 24 8 35 0" stroke="#06211F" stroke-width="8" stroke-linecap="round"/>
  <path d="M105 160c16-11 43-11 59 0" stroke="#06211F" stroke-width="8" stroke-linecap="round"/>
  <path d="M187 134c9 13 3 25-8 27" stroke="#60A5FA" stroke-width="8" stroke-linecap="round"/>
  <rect x="92" y="195" width="85" height="27" rx="13.5" fill="#00CEC8"/>
  <path d="M42 140c-15 5-21 20-14 33" stroke="#00CEC8" stroke-width="10" stroke-linecap="round"/>
  <path d="M227 140c15 5 21 20 14 33" stroke="#00CEC8" stroke-width="10" stroke-linecap="round"/>
</svg>
